<svg id="图层_1" data-name="图层 1" xmlns="http://www.w3.org/2000/svg" viewBox="0 0 178.97 22.51"><defs><style>.cls-1{fill:#231815;}.cls-2{fill:#e18c3b;}.cls-3{fill:#146936;}</style></defs><title>logo</title><path class="cls-1" d="M232.28,400.77q1.39,1.11,1.46,1.12a41.84,41.84,0,0,1-3.1,3.07,16,16,0,0,0-1.28-1.31Q230.79,402.38,232.28,400.77Zm-2.59-5.9h3.37q.43-.77.77-1.55l2,.22q-.3.65-.67,1.33h6.32v1.62h-7.28q-.72,1.14-1.63,2.38h2.63V397.1h1.86v1.78h4v1.62h-4v2.85a2.2,2.2,0,0,1-.4,1.41,1.66,1.66,0,0,1-1.12.6,19.14,19.14,0,0,1-2.32.1q-.12-.65-.42-1.85,1,.1,1.68.1t.72-.75v-2.45h-4.8v-1.7a28.18,28.18,0,0,0,1.67-2.29h-2.41Zm9.16,6.12,3,2.39-1.26,1.39q-1.32-1.27-2.89-2.57Z" transform="translate(-203.73 -391.82)"/><path class="cls-1" d="M251.7,393.36v.79h2.84v1.33H251.7v.73h-1.63v-.73H247v.73h-1.63v-.73h-2.82v-1.33h2.82v-.79H247v.79h3.11v-.79Zm1.13,9.14q.75.25,1.73.49a10.63,10.63,0,0,1-.27,1.41q-.32,1-2.07,1h-1.6q-1.74,0-1.74-1.6v-1.75h-1.36q-.28,2.32-3.82,3.59-.46-.69-1.15-1.59,2.86-.74,3.16-2h-2.79v-1.34h11.27v1.34h-3.53v1.37a.46.46,0,0,0,.52.53H252a.65.65,0,0,0,.74-.6Q252.8,403.09,252.83,402.5Zm-5.43-6.75h1.74q.16.34.41.94h4.6v2.57h-1.6V398h-8v1.29h-1.6v-2.57h4.82A7.79,7.79,0,0,1,247.41,395.75Zm4.75,3V400h-7.23v-1.29Z" transform="translate(-203.73 -391.82)"/><path class="cls-1" d="M256.89,397.16l.71,0q.37-.75.78-1.65l1.38.52q-1.27,2.65-2.24,4.3.69-.06,1.79-.21a10.72,10.72,0,0,0-.15,1.48A26.59,26.59,0,0,0,256,402l-.42-1.39a11.21,11.21,0,0,0,1.34-2.08l-1.2.1-.42-1.36a16.94,16.94,0,0,0,1.84-3.93l1.52.46Q257.69,395.73,256.89,397.16Zm-1.62,6q1.8-.23,4.34-.68-.06,1,0,1.71-1.92.3-4,.69Zm9-9.78q.74,1,1.17,1.76l-1.05.56h2.89V397h-2.12v1.28h2v1.27h-2v1.28h2v1.27h-2v1.28h2.27v1.31h-5.7v.86h-1.63v-6.06q-.27.4-.56.77a8.84,8.84,0,0,0-.67-1.64,17.4,17.4,0,0,0,2.26-5.23l1.58.42q-.29,1-.64,1.85H264q-.38-.76-.92-1.64Zm-2.54,4.93h1.8V397h-1.8Zm0,2.55h1.8v-1.28h-1.8Zm0,2.55h1.8v-1.28h-1.8Z" transform="translate(-203.73 -391.82)"/><path class="cls-1" d="M268.62,396.06h4.76v-2.64h1.79v2.64H280v1.65h-4.38a12.54,12.54,0,0,0,4.84,4.74A19.87,19.87,0,0,0,279,404a14,14,0,0,1-3.85-4.3v5.78h-1.79v-5.87a14.79,14.79,0,0,1-4,4.48q-.63-.8-1.28-1.5a14.15,14.15,0,0,0,4.67-4.88h-4.19Z" transform="translate(-203.73 -391.82)"/><path class="cls-1" d="M284.73,405.57h-1.55v-3.8q-1,.18-1.92.38l-.22-1.79q1-.09,2.15-.26v-2.47h-.8q-.15.87-.36,1.68a7.75,7.75,0,0,0-1-.55,25.3,25.3,0,0,0,.58-4.3l1.13.11q0,.76-.13,1.48h.57v-2.59h1.55v2.59h.9v.49a19,19,0,0,0,1.33-3.18l1.65.32q-.33.87-.65,1.62h4.87q0,2.14-.09,4.63l-.11,3.19a3.18,3.18,0,0,1-.27,1.19,1.43,1.43,0,0,1-.73.72,8,8,0,0,1-2.6.15,11.72,11.72,0,0,0-.43-1.7,10.5,10.5,0,0,1-2.07,1.95q-.78-.83-1.32-1.31a9.19,9.19,0,0,0,4.35-7.19H289a7.89,7.89,0,0,1-2.63,5.07l-.67-.63-.93.14Zm1.32-6.89a10.92,10.92,0,0,0-.81-1h-.51v2.23l1.11-.19c0,.18,0,.37,0,.57a6.69,6.69,0,0,0,2-3.32h-.6A11.18,11.18,0,0,1,286.05,398.68Zm5.25-1.75h-.54a10.53,10.53,0,0,1-2.09,6.48q.77.06,1.44.06a.89.89,0,0,0,1-.84Q291.21,401.79,291.31,396.93Z" transform="translate(-203.73 -391.82)"/><path class="cls-1" d="M295,396.81q1.13.81,2,1.59l-1.16,1.28q-.79-.78-1.94-1.71Zm.36,3.3a15.61,15.61,0,0,0,1.62.64l-1.31,4.72q-.89-.33-1.68-.58A49.51,49.51,0,0,0,295.33,400.12Zm-.22-6.58q1,.68,2,1.59L296,396.38a25.46,25.46,0,0,0-1.94-1.75Zm4.54,6.25v1.31a5.2,5.2,0,0,1-2,4.5q-.52-.53-1.23-1.13a4.32,4.32,0,0,0,1.62-3.71v-1Zm-2.42-5.09h3.13q-.2-.47-.45-1l1.84-.33q.33.67.62,1.33h3.28v1.46h-4.17q-.78.92-1.65,1.8l3.24-.14-.61-.72,1.33-.85q1.31,1.44,2.33,2.68l-1.43,1-.56-.75q-5,.18-6.43.37l-.52-1.37a5.83,5.83,0,0,0,2.13-2h-2.07Zm3,5.09h1.59v5.51h-1.59Zm4.69,1.64q.6.25,1.21.46-.13,1.74-.23,2.33a1.49,1.49,0,0,1-.48.91,1.54,1.54,0,0,1-1,.33H304q-1.42,0-1.42-1.54v-4.16h1.59v3.95q0,.37.25.37h.09c.17,0,.28-.12.32-.36S304.91,402.7,305,401.43Z" transform="translate(-203.73 -391.82)"/><path class="cls-1" d="M307.18,396.74h.64q-.28-.37-1-1.12a6.09,6.09,0,0,0,1.95-2.25h1.7q-.2.44-.42.85h3.18v1.17h-2.37l.73.81-.72.53h1.2l-.22-.65,1.39-.23.27.89h2.84q-.51-.64-.89-1l.38-.3h-.55a8.64,8.64,0,0,1-.91,1.2q-.36-.27-1.31-.9a8.07,8.07,0,0,0,1.46-2.32h1.71a8.82,8.82,0,0,1-.33.85h2.85v1.17h-1.85l.65.72-.86.63h2v1.78H317V398h-8.19v.52h-1.68Zm.67,0h2.49l-.78-.95.5-.4h-.81A8.05,8.05,0,0,1,307.84,396.74Zm9.64,2v2.94H310v.54h7.87v3.37h-1.6v-.39H310v.39h-1.68v-6.84Zm-1.6,1.8v-.67H310v.67Zm.39,2.81H310v.71h6.26Z" transform="translate(-203.73 -391.82)"/><path class="cls-1" d="M320,404.89l-.35-1.75,1.47-.33v-3h-1.18v-1.53h1.18v-2.59h-1.23V394.1h4v1.55H322.7v2.59h1.15v1.53H322.7v2.63L324,402a16.63,16.63,0,0,0,0,1.69H327v-1.07h-2.81v-1.41H327v-.89h-2.75V394h7.08v6.4H328.6v.89h2.81v1.41H328.6v1.07H332v1.4H323.5v-1.3Q321.87,404.29,320,404.89Zm5.82-8.37H327v-1.17h-1.21Zm0,2.47H327V397.8h-1.21Zm4-3.64H328.6v1.17h1.21Zm0,3.64V397.8H328.6V399Z" transform="translate(-203.73 -391.82)"/><path class="cls-1" d="M336.5,405.51h-1.78v-5.43a18.26,18.26,0,0,1-1.75,1.58q-.2-1-.42-1.92a14,14,0,0,0,3-3.51h-2.87v-1.54h3.65q.28-.66.49-1.36l1.95.3q-.2.54-.43,1.06h6.39v1.54h-7.15c-.16.31-.34.61-.52.9h6.51v6.68a1.73,1.73,0,0,1-.37,1.19,1.51,1.51,0,0,1-1,.48q-.66.06-2.57.06a12.13,12.13,0,0,0-.48-1.69q1.06.06,2,.06a.62.62,0,0,0,.7-.69V403H336.5Zm5.27-6.94H336.5v.9h5.27Zm-5.27,3.12h5.27v-.9H336.5Z" transform="translate(-203.73 -391.82)"/><path class="cls-1" d="M349,398.42a4.48,4.48,0,0,1,1.21,3.16q0,2-2.4,2a12.36,12.36,0,0,0-.32-1.91,2.28,2.28,0,0,0,.41,0q.71,0,.71-.57a3.79,3.79,0,0,0-1.1-2.49q.52-1.63.93-3.27h-1v10.26h-1.53V393.9h4.14v1.18Q349.61,396.6,349,398.42Zm8.69,5.33a12.54,12.54,0,0,0-.89,1.7,6.89,6.89,0,0,1-2.82-2.12q0,.86,0,1.36a20.3,20.3,0,0,0-3.23.94l-.69-1.31a1.76,1.76,0,0,0,.42-1.29v-9.09h6.47v6.36h-.31l1,1.29-1.91,1.14A5.76,5.76,0,0,0,357.71,403.75Zm-2.34-8.34H352v1h3.32Zm0,3.4v-1H352v1Zm-2.74,1.48H352v3.19l1.76-.43A8.5,8.5,0,0,1,352.63,400.29Zm2.21,1.36a16.51,16.51,0,0,0,1.66-1.36h-2.32A7.36,7.36,0,0,0,354.84,401.65Z" transform="translate(-203.73 -391.82)"/><path class="cls-1" d="M361.82,393.72l1.69.71a16.21,16.21,0,0,1-3.9,5.41q-.42-.54-1.23-1.43A13.46,13.46,0,0,0,361.82,393.72Zm4.74,6.12a57.58,57.58,0,0,1,3.48,4.65l-1.62,1.12q-.3-.51-.65-1.05l-6.43.33a9.85,9.85,0,0,0-1.28.23l-.76-1.66a8.77,8.77,0,0,0,2.22-2.52,33.87,33.87,0,0,0,2.1-3.43l1.83.81a40.77,40.77,0,0,1-3.43,4.74q2.42-.06,4.64-.15-.71-1-1.57-2.14Zm.46-6.24a14.2,14.2,0,0,0,3.58,4.66q-.9.9-1.41,1.47a17.55,17.55,0,0,1-3.79-5.36Z" transform="translate(-203.73 -391.82)"/><path class="cls-1" d="M371.39,396.41h8.83v1.54h-8.83Zm11.31,6.66a2.68,2.68,0,0,1-.38,1.51,1.64,1.64,0,0,1-1,.72,14.77,14.77,0,0,1-2.74.15,6.36,6.36,0,0,0-.44-1.71q1,.06,1.76.06,1,0,1-1.17v-7.19h-9v-1.55H382.7Zm-3.6-4.16v4.53h-4.95v.73h-1.73v-5.25Zm-4.95,1.58v1.37h3.22v-1.37Z" transform="translate(-203.73 -391.82)"/><path class="cls-1" d="M229.25,412.66V408h1.34a2.59,2.59,0,0,1,1.77.62,2.1,2.1,0,0,1,.71,1.66,2.27,2.27,0,0,1-.71,1.75,2.57,2.57,0,0,1-1.82.66Zm.6-4.15v3.61h.68a1.91,1.91,0,0,0,1.39-.49,1.81,1.81,0,0,0,.5-1.36,1.65,1.65,0,0,0-.51-1.32,2,2,0,0,0-1.35-.44Z" transform="translate(-203.73 -391.82)"/><path class="cls-1" d="M233.8,411a1.8,1.8,0,0,1,.46-1.31,1.66,1.66,0,0,1,1.26-.48,1.53,1.53,0,0,1,1.18.46,2.07,2.07,0,0,1,0,2.56,1.6,1.6,0,0,1-1.23.49,1.58,1.58,0,0,1-1.2-.47A1.73,1.73,0,0,1,233.8,411Zm.61,0a1.34,1.34,0,0,0,.29.91,1,1,0,0,0,.79.33.94.94,0,0,0,.77-.33,1.44,1.44,0,0,0,.27-.93,1.45,1.45,0,0,0-.27-.94.94.94,0,0,0-.77-.33,1,1,0,0,0-.79.34A1.41,1.41,0,0,0,234.4,411Z" transform="translate(-203.73 -391.82)"/><path class="cls-1" d="M240.92,412.66h-.59v-1.9q0-1-.75-1a.81.81,0,0,0-.64.29,1.09,1.09,0,0,0-.25.74v1.91h-.59v-3.35h.59v.55h0a1.21,1.21,0,0,1,1.1-.63,1,1,0,0,1,.84.35,1.59,1.59,0,0,1,.29,1Z" transform="translate(-203.73 -391.82)"/><path class="cls-1" d="M244.94,412.37a1.62,1.62,0,0,1-1.8,1.86A2.37,2.37,0,0,1,242,414v-.57a2.21,2.21,0,0,0,1.07.31q1.22,0,1.22-1.28v-.35h0a1.34,1.34,0,0,1-2.15.18,1.8,1.8,0,0,1-.38-1.2,2.05,2.05,0,0,1,.42-1.36,1.38,1.38,0,0,1,1.11-.5,1.08,1.08,0,0,1,1,.53h0v-.45h.59Zm-.59-1.71a.92.92,0,0,0-.26-.67.86.86,0,0,0-.65-.28.89.89,0,0,0-.75.36,1.58,1.58,0,0,0-.27,1,1.35,1.35,0,0,0,.26.86.84.84,0,0,0,.69.33.9.9,0,0,0,.71-.32,1.16,1.16,0,0,0,.27-.8Z" transform="translate(-203.73 -391.82)"/><path class="cls-1" d="M249,412.37a1.62,1.62,0,0,1-1.8,1.86,2.37,2.37,0,0,1-1.08-.23v-.57a2.21,2.21,0,0,0,1.07.31q1.22,0,1.22-1.28v-.35h0a1.34,1.34,0,0,1-2.15.18,1.8,1.8,0,0,1-.38-1.2,2.05,2.05,0,0,1,.42-1.36,1.38,1.38,0,0,1,1.11-.5,1.08,1.08,0,0,1,1,.53h0v-.45H249Zm-.59-1.71a.92.92,0,0,0-.26-.67.86.86,0,0,0-.65-.28.89.89,0,0,0-.75.36,1.58,1.58,0,0,0-.27,1,1.35,1.35,0,0,0,.26.86.84.84,0,0,0,.69.33.9.9,0,0,0,.71-.32,1.16,1.16,0,0,0,.27-.8Z" transform="translate(-203.73 -391.82)"/><path class="cls-1" d="M253,412.66h-.6v-.53h0a1.1,1.1,0,0,1-1,.61q-1.19,0-1.19-1.42v-2h.59v1.92q0,1,.78,1a.78.78,0,0,0,.63-.29,1.09,1.09,0,0,0,.24-.72v-1.93h.6Z" transform="translate(-203.73 -391.82)"/><path class="cls-1" d="M254.23,409.54a2.13,2.13,0,0,1,1.15-.31q1.21,0,1.21,1.27v2.16H256v-.52h0a1.12,1.12,0,0,1-1,.6,1.1,1.1,0,0,1-.77-.26.92.92,0,0,1-.29-.71q0-.94,1.11-1.09l1-.14q0-.82-.68-.82a1.7,1.7,0,0,0-1.1.41Zm1,1.54a1,1,0,0,0-.57.21.56.56,0,0,0-.16.42.5.5,0,0,0,.17.39.65.65,0,0,0,.45.15.83.83,0,0,0,.64-.27,1,1,0,0,0,.25-.68V411Z" transform="translate(-203.73 -391.82)"/><path class="cls-1" d="M260.53,412.66h-.59v-1.9q0-1-.75-1a.81.81,0,0,0-.64.29,1.09,1.09,0,0,0-.25.74v1.91h-.59v-3.35h.59v.55h0a1.21,1.21,0,0,1,1.1-.63,1,1,0,0,1,.84.35,1.59,1.59,0,0,1,.29,1Z" transform="translate(-203.73 -391.82)"/><path class="cls-1" d="M269.3,408,268,412.66h-.71l-.94-3.38a2.21,2.21,0,0,1-.08-.48h0a2.25,2.25,0,0,1-.08.48l-1,3.38h-.7L263.16,408h.67l1,3.54a2.34,2.34,0,0,1,.08.48h0a2.71,2.71,0,0,1,.1-.48l1-3.54h.6l1,3.57a3,3,0,0,1,.08.45h0a2.46,2.46,0,0,1,.09-.46l.92-3.56Z" transform="translate(-203.73 -391.82)"/><path class="cls-1" d="M272.6,411.13h-2.34a1.21,1.21,0,0,0,.29.83,1,1,0,0,0,.78.29,1.66,1.66,0,0,0,1-.36v.53a2,2,0,0,1-1.17.31,1.43,1.43,0,0,1-1.13-.46,1.86,1.86,0,0,1-.41-1.28,1.83,1.83,0,0,1,.45-1.27,1.43,1.43,0,0,1,1.11-.5,1.29,1.29,0,0,1,1,.42,1.74,1.74,0,0,1,.37,1.18Zm-.59-.48a1.06,1.06,0,0,0-.21-.7.74.74,0,0,0-.6-.25.83.83,0,0,0-.61.26,1.22,1.22,0,0,0-.33.69Z" transform="translate(-203.73 -391.82)"/><path class="cls-1" d="M273.44,408.13a.37.37,0,0,1,.37-.37.37.37,0,0,1,.27.11.35.35,0,0,1,.11.27.35.35,0,0,1-.11.26.38.38,0,0,1-.27.1.36.36,0,0,1-.27-.1A.35.35,0,0,1,273.44,408.13Zm.07,4.53v-3.35h.59v3.35Z" transform="translate(-203.73 -391.82)"/><path class="cls-1" d="M280.11,412.66h-.59v-1.92a1.37,1.37,0,0,0-.17-.78.64.64,0,0,0-.56-.23.69.69,0,0,0-.56.31,1.16,1.16,0,0,0-.23.72v1.91h-.59v-2q0-1-.74-1a.68.68,0,0,0-.56.29,1.19,1.19,0,0,0-.22.74v1.9h-.59v-3.35h.59v.53h0a1.14,1.14,0,0,1,1-.61,1,1,0,0,1,.59.18,1,1,0,0,1,.36.5,1.2,1.2,0,0,1,1.11-.68q1.11,0,1.1,1.36Z" transform="translate(-203.73 -391.82)"/><path class="cls-1" d="M284,412.66h-.6v-.53h0a1.1,1.1,0,0,1-1,.61q-1.19,0-1.19-1.42v-2h.59v1.92q0,1,.78,1a.78.78,0,0,0,.63-.29,1.09,1.09,0,0,0,.24-.72v-1.93h.6Z" transform="translate(-203.73 -391.82)"/><path class="cls-1" d="M289.67,412.66H287.2V408h.6v4.15h1.87Z" transform="translate(-203.73 -391.82)"/><path class="cls-1" d="M290.2,411a1.8,1.8,0,0,1,.46-1.31,1.66,1.66,0,0,1,1.26-.48,1.53,1.53,0,0,1,1.18.46,2.07,2.07,0,0,1,0,2.56,1.6,1.6,0,0,1-1.23.49,1.58,1.58,0,0,1-1.2-.47A1.73,1.73,0,0,1,290.2,411Zm.61,0a1.34,1.34,0,0,0,.29.91,1,1,0,0,0,.79.33.94.94,0,0,0,.77-.33,1.44,1.44,0,0,0,.27-.93,1.45,1.45,0,0,0-.27-.94.94.94,0,0,0-.77-.33,1,1,0,0,0-.79.34A1.41,1.41,0,0,0,290.81,411Z" transform="translate(-203.73 -391.82)"/><path class="cls-1" d="M297.4,412.37a1.62,1.62,0,0,1-1.8,1.86,2.37,2.37,0,0,1-1.08-.23v-.57a2.21,2.21,0,0,0,1.07.31q1.22,0,1.22-1.28v-.35h0a1.34,1.34,0,0,1-2.15.18,1.8,1.8,0,0,1-.38-1.2,2.05,2.05,0,0,1,.42-1.36,1.38,1.38,0,0,1,1.11-.5,1.08,1.08,0,0,1,1,.53h0v-.45h.59Zm-.59-1.71a.92.92,0,0,0-.26-.67.86.86,0,0,0-.65-.28.89.89,0,0,0-.75.36,1.58,1.58,0,0,0-.27,1,1.35,1.35,0,0,0,.26.86.84.84,0,0,0,.69.33.9.9,0,0,0,.71-.32,1.16,1.16,0,0,0,.27-.8Z" transform="translate(-203.73 -391.82)"/><path class="cls-1" d="M298.51,408.13a.37.37,0,0,1,.37-.37.37.37,0,0,1,.27.11.35.35,0,0,1,.11.27.34.34,0,0,1-.11.26.38.38,0,0,1-.27.1.36.36,0,0,1-.27-.1A.35.35,0,0,1,298.51,408.13Zm.07,4.53v-3.35h.59v3.35Z" transform="translate(-203.73 -391.82)"/><path class="cls-1" d="M300.17,411.93a1.62,1.62,0,0,0,1,.32q.69,0,.69-.45a.4.4,0,0,0-.15-.32,2.37,2.37,0,0,0-.61-.3,1.75,1.75,0,0,1-.72-.44.85.85,0,0,1-.17-.53.83.83,0,0,1,.38-.71,1.56,1.56,0,0,1,.93-.27,2.08,2.08,0,0,1,.79.15v.57a1.54,1.54,0,0,0-.85-.24.8.8,0,0,0-.46.12.38.38,0,0,0-.18.33.39.39,0,0,0,.13.31,2.25,2.25,0,0,0,.57.29,1.93,1.93,0,0,1,.76.43.81.81,0,0,1,.2.55.84.84,0,0,1-.38.72,1.66,1.66,0,0,1-1,.27,2,2,0,0,1-.91-.2Z" transform="translate(-203.73 -391.82)"/><path class="cls-1" d="M305,412.62a1.1,1.1,0,0,1-.52.11q-.9,0-.9-1V409.8H303v-.49h.58v-.8l.59-.19v1H305v.49h-.83v1.83a.78.78,0,0,0,.11.47.45.45,0,0,0,.37.14.56.56,0,0,0,.35-.11Z" transform="translate(-203.73 -391.82)"/><path class="cls-1" d="M305.71,408.13a.37.37,0,0,1,.37-.37.38.38,0,0,1,.27.11.35.35,0,0,1,.11.27.35.35,0,0,1-.11.26.38.38,0,0,1-.27.1.36.36,0,0,1-.27-.1A.35.35,0,0,1,305.71,408.13Zm.07,4.53v-3.35h.59v3.35Z" transform="translate(-203.73 -391.82)"/><path class="cls-1" d="M309.87,412.5a1.77,1.77,0,0,1-.93.23,1.53,1.53,0,0,1-1.17-.47,1.68,1.68,0,0,1-.44-1.21,1.85,1.85,0,0,1,.48-1.33,1.67,1.67,0,0,1,1.28-.5,1.74,1.74,0,0,1,.79.16V410a1.3,1.3,0,0,0-.79-.26,1.07,1.07,0,0,0-.83.35,1.35,1.35,0,0,0-.32.94,1.29,1.29,0,0,0,.3.91,1.05,1.05,0,0,0,.81.33,1.35,1.35,0,0,0,.82-.29Z" transform="translate(-203.73 -391.82)"/><path class="cls-1" d="M310.6,411.93a1.62,1.62,0,0,0,1,.32q.69,0,.69-.45a.4.4,0,0,0-.15-.32,2.37,2.37,0,0,0-.61-.3,1.76,1.76,0,0,1-.72-.44.85.85,0,0,1-.17-.53.83.83,0,0,1,.38-.71,1.56,1.56,0,0,1,.93-.27,2.08,2.08,0,0,1,.79.15v.57a1.54,1.54,0,0,0-.85-.24.8.8,0,0,0-.46.12.38.38,0,0,0-.18.33.39.39,0,0,0,.13.31,2.29,2.29,0,0,0,.57.29,1.91,1.91,0,0,1,.76.43.81.81,0,0,1,.2.55.84.84,0,0,1-.38.72,1.66,1.66,0,0,1-1,.27,2,2,0,0,1-.91-.2Z" transform="translate(-203.73 -391.82)"/><path class="cls-1" d="M320.05,412.66v-3.11q0-.38,0-.92h0a2.93,2.93,0,0,1-.14.47l-1.55,3.56h-.34l-1.54-3.53a3.09,3.09,0,0,1-.14-.5h0q0,.33,0,1v3.08h-.58V408h.82l1.38,3.21a4.07,4.07,0,0,1,.21.58h0c.1-.29.18-.48.22-.59l1.41-3.2h.78v4.69Z" transform="translate(-203.73 -391.82)"/><path class="cls-1" d="M322,409.54a2.13,2.13,0,0,1,1.15-.31q1.21,0,1.21,1.27v2.16h-.59v-.52h0a1.12,1.12,0,0,1-1,.6,1.1,1.1,0,0,1-.78-.26.92.92,0,0,1-.29-.71q0-.94,1.11-1.09l1-.14q0-.82-.68-.82a1.7,1.7,0,0,0-1.1.41Zm1,1.54a1,1,0,0,0-.57.21.56.56,0,0,0-.16.42.5.5,0,0,0,.17.39.65.65,0,0,0,.45.15.83.83,0,0,0,.64-.27,1,1,0,0,0,.25-.68V411Z" transform="translate(-203.73 -391.82)"/><path class="cls-1" d="M328.3,412.66h-.59v-1.9q0-1-.75-1a.81.81,0,0,0-.64.29,1.09,1.09,0,0,0-.25.74v1.91h-.59v-3.35h.59v.55h0a1.21,1.21,0,0,1,1.1-.63,1,1,0,0,1,.84.35,1.59,1.59,0,0,1,.29,1Z" transform="translate(-203.73 -391.82)"/><path class="cls-1" d="M329.49,409.54a2.13,2.13,0,0,1,1.15-.31q1.21,0,1.21,1.27v2.16h-.59v-.52h0a1.12,1.12,0,0,1-1,.6,1.1,1.1,0,0,1-.77-.26.92.92,0,0,1-.29-.71q0-.94,1.11-1.09l1-.14q0-.82-.68-.82a1.7,1.7,0,0,0-1.1.41Zm1,1.54a1,1,0,0,0-.57.21.56.56,0,0,0-.16.42.5.5,0,0,0,.17.39.65.65,0,0,0,.45.15A.83.83,0,0,0,331,412a1,1,0,0,0,.25-.68V411Z" transform="translate(-203.73 -391.82)"/><path class="cls-1" d="M335.87,412.37a1.62,1.62,0,0,1-1.8,1.86A2.37,2.37,0,0,1,333,414v-.57a2.21,2.21,0,0,0,1.07.31q1.22,0,1.22-1.28v-.35h0a1.35,1.35,0,0,1-2.15.18,1.8,1.8,0,0,1-.38-1.2,2.05,2.05,0,0,1,.42-1.36,1.38,1.38,0,0,1,1.11-.5,1.08,1.08,0,0,1,1,.53h0v-.45h.59Zm-.59-1.71A.92.92,0,0,0,335,410a.85.85,0,0,0-.65-.28.89.89,0,0,0-.75.36,1.59,1.59,0,0,0-.27,1,1.35,1.35,0,0,0,.26.86.84.84,0,0,0,.69.33.9.9,0,0,0,.71-.32,1.16,1.16,0,0,0,.27-.8Z" transform="translate(-203.73 -391.82)"/><path class="cls-1" d="M339.78,411.13h-2.34a1.2,1.2,0,0,0,.29.83,1,1,0,0,0,.78.29,1.66,1.66,0,0,0,1-.36v.53a2,2,0,0,1-1.17.31,1.43,1.43,0,0,1-1.13-.46,1.86,1.86,0,0,1-.41-1.28,1.83,1.83,0,0,1,.45-1.27,1.43,1.43,0,0,1,1.11-.5,1.29,1.29,0,0,1,1,.42,1.74,1.74,0,0,1,.37,1.18Zm-.59-.48a1.06,1.06,0,0,0-.21-.7.74.74,0,0,0-.6-.25.83.83,0,0,0-.61.26,1.22,1.22,0,0,0-.33.69Z" transform="translate(-203.73 -391.82)"/><path class="cls-1" d="M345.51,412.66h-.59v-1.92a1.36,1.36,0,0,0-.17-.78.64.64,0,0,0-.56-.23.69.69,0,0,0-.56.31,1.16,1.16,0,0,0-.23.72v1.91h-.59v-2q0-1-.74-1a.68.68,0,0,0-.56.29,1.19,1.19,0,0,0-.22.74v1.9h-.59v-3.35h.59v.53h0a1.14,1.14,0,0,1,1-.61,1,1,0,0,1,.59.18,1,1,0,0,1,.36.5,1.2,1.2,0,0,1,1.11-.68q1.1,0,1.1,1.36Z" transform="translate(-203.73 -391.82)"/><path class="cls-1" d="M349.35,411.13H347a1.21,1.21,0,0,0,.29.83,1,1,0,0,0,.78.29,1.65,1.65,0,0,0,1-.36v.53a2,2,0,0,1-1.17.31,1.43,1.43,0,0,1-1.13-.46,1.86,1.86,0,0,1-.41-1.28,1.84,1.84,0,0,1,.45-1.27,1.43,1.43,0,0,1,1.11-.5,1.29,1.29,0,0,1,1,.42,1.74,1.74,0,0,1,.37,1.18Zm-.59-.48a1.07,1.07,0,0,0-.21-.7.74.74,0,0,0-.6-.25.83.83,0,0,0-.61.26,1.23,1.23,0,0,0-.33.69Z" transform="translate(-203.73 -391.82)"/><path class="cls-1" d="M353.09,412.66h-.59v-1.9q0-1-.75-1a.81.81,0,0,0-.64.29,1.08,1.08,0,0,0-.25.74v1.91h-.59v-3.35h.59v.55h0a1.21,1.21,0,0,1,1.1-.63,1,1,0,0,1,.84.35,1.59,1.59,0,0,1,.29,1Z" transform="translate(-203.73 -391.82)"/><path class="cls-1" d="M355.82,412.62a1.1,1.1,0,0,1-.52.11q-.9,0-.9-1V409.8h-.58v-.49h.58v-.8l.59-.19v1h.83v.49H355v1.83a.78.78,0,0,0,.11.47.45.45,0,0,0,.37.14.56.56,0,0,0,.35-.11Z" transform="translate(-203.73 -391.82)"/><path class="cls-1" d="M361.88,412.46a2.77,2.77,0,0,1-1.3.27,2.11,2.11,0,0,1-1.61-.64,2.37,2.37,0,0,1-.6-1.69,2.49,2.49,0,0,1,.68-1.82,2.31,2.31,0,0,1,1.72-.69,2.8,2.8,0,0,1,1.11.19v.63a2.24,2.24,0,0,0-1.1-.28,1.68,1.68,0,0,0-1.28.52,2,2,0,0,0-.49,1.41,1.89,1.89,0,0,0,.46,1.34,1.57,1.57,0,0,0,1.21.5,2.27,2.27,0,0,0,1.21-.31Z" transform="translate(-203.73 -391.82)"/><path class="cls-1" d="M362.65,411a1.8,1.8,0,0,1,.46-1.31,1.66,1.66,0,0,1,1.26-.48,1.53,1.53,0,0,1,1.18.46,2.07,2.07,0,0,1,0,2.56,1.6,1.6,0,0,1-1.23.49,1.58,1.58,0,0,1-1.2-.47A1.73,1.73,0,0,1,362.65,411Zm.61,0a1.34,1.34,0,0,0,.29.91,1,1,0,0,0,.79.33.94.94,0,0,0,.78-.33,1.44,1.44,0,0,0,.27-.93,1.45,1.45,0,0,0-.27-.94.94.94,0,0,0-.78-.33,1,1,0,0,0-.79.34A1.41,1.41,0,0,0,363.25,411Z" transform="translate(-203.73 -391.82)"/><path class="cls-1" d="M366.76,412.34a.38.38,0,0,1,.39-.39.38.38,0,0,1,.28.11.38.38,0,0,1,.11.27.37.37,0,0,1-.11.27.38.38,0,0,1-.28.11.37.37,0,0,1-.28-.11A.38.38,0,0,1,366.76,412.34Z" transform="translate(-203.73 -391.82)"/><path class="cls-1" d="M369.09,411.9l-.52,1.61h-.43l.38-1.61Z" transform="translate(-203.73 -391.82)"/><path class="cls-1" d="M374.67,412.66H372.2V408h.61v4.15h1.87Z" transform="translate(-203.73 -391.82)"/><path class="cls-1" d="M376.95,412.62a1.1,1.1,0,0,1-.52.11q-.9,0-.9-1V409.8H375v-.49h.58v-.8l.59-.19v1h.83v.49h-.83v1.83a.78.78,0,0,0,.11.47.45.45,0,0,0,.37.14.56.56,0,0,0,.35-.11Z" transform="translate(-203.73 -391.82)"/><path class="cls-1" d="M380.59,412.66H380v-.56h0a1.22,1.22,0,0,1-1.14.64,1.24,1.24,0,0,1-1-.45,1.85,1.85,0,0,1-.38-1.22,2,2,0,0,1,.42-1.33,1.38,1.38,0,0,1,1.11-.5,1.06,1.06,0,0,1,1,.53h0V407.7h.59Zm-.59-2a.93.93,0,0,0-.27-.67.87.87,0,0,0-.65-.27.89.89,0,0,0-.74.35,1.54,1.54,0,0,0-.27,1,1.37,1.37,0,0,0,.26.88.85.85,0,0,0,.7.33.88.88,0,0,0,.7-.32,1.18,1.18,0,0,0,.27-.79Z" transform="translate(-203.73 -391.82)"/><path class="cls-1" d="M381.61,412.34A.38.38,0,0,1,382,412a.38.38,0,0,1,.28.11.38.38,0,0,1,.11.27.37.37,0,0,1-.11.27.38.38,0,0,1-.28.11.37.37,0,0,1-.28-.11A.38.38,0,0,1,381.61,412.34Z" transform="translate(-203.73 -391.82)"/><path class="cls-2" d="M223.91,414.33h-17A36.9,36.9,0,0,1,223.91,414.33Z" transform="translate(-203.73 -391.82)"/><path class="cls-3" d="M224.4,400.26a.85.85,0,0,1-.12-.24l.33-.48c0-.08,0-.14-.07-.19a1.3,1.3,0,0,0-1.55-1,.91.91,0,0,1-1-.5,2.92,2.92,0,0,0,.35-.23c.78-.68.78-.44.29-1.4,0,0,0-.1,0-.15.09-.23.26-.44.11-.71s-.18-.66-.63-.65c-.05,0-.14-.09-.16-.15-.15-.52-.63-.58-1-.75a1.46,1.46,0,0,0-1.29-.06,2.09,2.09,0,0,1-1.64.08c0-.06,0-.13-.06-.21-.06-.23.08-.53-.2-.69a3.84,3.84,0,0,0-.68-.33,2.86,2.86,0,0,0-.57-.09.88.88,0,0,1-.64-.29,1.22,1.22,0,0,0-.9-.4c-.4,0-.81,0-1.21,0s-.62.06-.72.45a.47.47,0,0,1-.42.34,1,1,0,0,0-.89.81.54.54,0,0,1-.66.48,2.69,2.69,0,0,1-.49-.15,1.32,1.32,0,0,0-1.27.07.72.72,0,0,1-.82,0c-.38-.2-.49-.18-.8.11-.13.12-.23.3-.38.35a.93.93,0,0,0-.63.82c-.09.5-.32.66-.83.72a2,2,0,0,0-1.54,1l.85.73a.88.88,0,0,1-.62.68.56.56,0,0,0-.31.23,2.88,2.88,0,0,0-.48,2.26.67.67,0,0,1,0,.4c-.22.55.15.82.51,1.09s.69.17.87.59a.57.57,0,0,0,.5.35,3.74,3.74,0,0,0,1-.17c.33-.08,1,.23,1.63.1a1.7,1.7,0,0,0,1.25-1.08,20.78,20.78,0,0,1,2,1.09,2.27,2.27,0,0,1,1,1.1,1,1,0,0,0-.89.6L209.62,410s-1.08-3.7-1.31-4.5a1.55,1.55,0,0,0-1.35-1.2,12.74,12.74,0,0,0-2.38,0,4,4,0,0,1,1,1.88c.66,2,2.27,6.6,2.38,6.94,1.12-.18,2.24-.33,3.36-.43l1.76-4.52s0,1.92,0,3.69a1.46,1.46,0,0,1-.29.73c1.15-.06,2.3-.08,3.45-.05a2.48,2.48,0,0,1-.31-.62c-.13-2.52-.09-3.46-.09-3.46l1.28,4.1a21.74,21.74,0,0,1,2.78.19l1.3-5.67v5.81c1,.13,1.89.29,2.92.49a3,3,0,0,1-.44-1.9c0-2.17,0-7.16,0-7.16s-1.56,0-2.31,0a1.85,1.85,0,0,0-1.76,1.52c-.16.64-1.06,4.25-1.06,4.25s-1.14-3.71-1.68-5.45c-.11-.36-.61-.4-.61-.4a13.25,13.25,0,0,1,1.83-2.32.58.58,0,0,1,.32-.18,1.1,1.1,0,0,1,1.27.66c.17.4.42.63.82.6a1.86,1.86,0,0,1,.73.13c.79.14,1.23.25,1.92-.36a3.16,3.16,0,0,1,.68-.46,1.36,1.36,0,0,0,.78-.93A1.05,1.05,0,0,0,224.4,400.26Zm-11.39,3c-.48-.27-.84-.59-1.3-.82s-.89-.41-1.38-.64a2.46,2.46,0,0,1,1.76-.15C213.08,401.77,213,403,213,403.24Zm2.52.55s0-1.65.42-2,1.28,0,1.28,0A9.54,9.54,0,0,0,215.53,403.79Z" transform="translate(-203.73 -391.82)"/></svg>