<svg id="图层_1" data-name="图层 1" xmlns="http://www.w3.org/2000/svg" viewBox="0 0 22.84 14.11"><defs><style>.cls-1{fill:#231815;fill-rule:evenodd;}</style></defs><title>NO</title><path class="cls-1" d="M286.21,410.33v-.48q1.92,0,1.84-1.68v-9.7c-.91-1.07-1.5-1.58-1.76-1.52v-.48h4.33l7.14,8.74V399c.11-1.33-.53-2-1.93-2.08v-.48h4.41v.48q-1.84.24-1.6,1.68v11.95h-.56l-9.14-11v8.18q-.24,2.08,1.93,2.08v.48Z" transform="translate(-286.21 -396.46)"/><path class="cls-1" d="M303.74,400.68q-.21,3.95,1.43,3.75,1.36.2,1.29-3.75T305.1,397q-1.5-.14-1.36,3.68Zm-2.59,0q.27-3.88,4-4.22,3.61.34,3.95,4.22-.34,4-3.95,4.16Q301.42,404.7,301.15,400.68Z" transform="translate(-286.21 -396.46)"/><path class="cls-1" d="M303.53,408.89a1.77,1.77,0,1,1,3.53,0,1.62,1.62,0,0,1-1.76,1.52C304.17,410.36,303.59,409.85,303.53,408.89Z" transform="translate(-286.21 -396.46)"/></svg>